PathFileType	4	(X/Y/Z)	s10c0001.trc
DataRate	CameraRate	NumFrames	NumMarkers	Units	OrigDataRate	OrigDataStartFrame	OrigNumFrames
200	200	7	49	mm	200	500	2000
Frame#	Time	racr			lacr			c7			jug			rlel			rdr			llel			ldr			s2			lic			ric			lasi			rasi			rpsi			lpsi			rgt			lgt			rth1			rth2			rth3			rth4			rlfc			rmfc			rsh1			rsh2			rsh3			rsh4			rlmal			rmmal			rcal			rtoe			rmt5			rmt1			lth1			lth2			lth4			lth3			llfc			lmfc			llmal			lmmal			lcal			lmt1			lmt5			lsh1			lsh2			lsh3			lsh4			ltoe			
		X1	Y1	Z1	X2	Y2	Z2	X3	Y3	Z3	X4	Y4	Z4	X5	Y5	Z5	X6	Y6	Z6	X7	Y7	Z7	X8	Y8	Z8	X9	Y9	Z9	X10	Y10	Z10	X11	Y11	Z11	X12	Y12	Z12	X13	Y13	Z13	X14	Y14	Z14	X15	Y15	Z15	X16	Y16	Z16	X17	Y17	Z17	X18	Y18	Z18	X19	Y19	Z19	X20	Y20	Z20	X21	Y21	Z21	X22	Y22	Z22	X23	Y23	Z23	X24	Y24	Z24	X25	Y25	Z25	X26	Y26	Z26	X27	Y27	Z27	X28	Y28	Z28	X29	Y29	Z29	X30	Y30	Z30	X31	Y31	Z31	X32	Y32	Z32	X33	Y33	Z33	X34	Y34	Z34	X35	Y35	Z35	X36	Y36	Z36	X37	Y37	Z37	X38	Y38	Z38	X39	Y39	Z39	X40	Y40	Z40	X41	Y41	Z41	X42	Y42	Z42	X43	Y43	Z43	X44	Y44	Z44	X45	Y45	Z45	X46	Y46	Z46	X47	Y47	Z47	X48	Y48	Z48	X49	Y49	Z49	
500	2.5000	462.163879	1377.150391	683.793518	482.088165	1385.923584	305.423645	431.451935	1426.360229	485.463959	562.140564	1373.046021	502.189972	454.861664	1119.772827	814.933533	476.539612	907.336914	926.833801	480.838898	1106.553467	197.004364	534.989258	903.068054	94.967300	386.957367	931.405762	496.858673	533.334534	993.529907	350.419617	536.709778	1001.472656	649.826721	597.275879	918.606567	383.167877	581.399292	907.684265	639.150208	405.794220	971.921387	558.897095	405.804871	983.451172	445.828369	464.621033	853.624451	684.416077	471.033752	854.392517	308.612793	484.417267	729.152649	715.046997	506.898590	643.217834	700.638489	484.883759	561.442871	691.969055	543.692932	646.032776	691.991394	493.780975	459.296936	675.134399	481.813904	441.190308	562.532715	447.906952	360.061768	716.978882	468.982788	273.171326	714.764160	444.304077	190.591492	716.729370	500.671082	274.181824	691.573608	454.082642	84.970619	709.945801	483.554596	95.910301	630.089050	420.298920	50.303139	655.094299	652.000000	85.049324	711.315369	566.088806	42.111237	755.906128	609.717468	46.710400	658.384338	493.340576	746.167114	283.027100	515.182617	665.021484	292.555664	549.879822	666.212524	305.011597	494.152191	577.859314	301.231079	495.486725	472.736542	315.154053	491.210175	454.617401	425.588928	450.737976	103.855110	284.059814	469.842163	100.966087	362.337982	411.039459	58.716656	327.114410	612.112976	47.345608	347.341370	579.638794	46.101971	245.184708	446.187164	364.329224	269.992523	472.428619	281.444366	275.865448	451.896881	194.312027	273.380493	501.451538	283.083069	301.612305	653.389709	92.343689	295.277313	
501	2.5050	462.134308	1377.161255	683.801697	482.094177	1385.922119	305.429474	431.391113	1426.365356	485.539948	562.126831	1373.051392	502.184235	454.778809	1119.772461	814.913025	476.530518	907.346802	926.860168	480.825684	1106.582031	196.977753	534.941162	903.092163	94.930832	386.954529	931.408020	496.899261	533.336914	993.540222	350.434357	536.696777	1001.478088	649.846130	597.239136	918.609924	383.173859	581.375122	907.684570	639.158447	405.905518	971.875854	558.912231	405.816559	983.455444	445.857086	464.646973	853.634521	684.446838	471.056427	854.369385	308.638336	484.424622	729.157898	715.063721	506.902740	643.253235	700.648804	484.886932	561.445618	691.990967	543.722412	646.037048	692.053101	493.801727	459.310364	675.162903	481.788849	441.185913	562.531128	447.907471	360.068298	716.986938	468.966248	273.215454	714.741577	444.320709	190.578293	716.733215	500.681061	274.178802	691.584412	454.124420	84.996964	709.970093	483.576233	95.917122	630.090576	420.347046	50.261841	655.115601	652.010620	85.045395	711.336609	566.136658	42.123508	755.903503	609.725708	46.728020	658.388245	493.342468	746.161682	283.023315	515.183289	665.046021	292.562317	549.881958	666.205933	305.018768	494.158081	577.858459	301.239716	495.477814	472.724182	315.159668	491.229187	454.626068	425.618469	450.755219	103.852081	284.091400	469.863770	100.952950	362.357025	411.050323	58.703381	327.139465	612.123169	47.371037	347.357361	579.634338	46.105831	245.172623	446.195801	364.316193	269.981812	472.432190	281.447510	275.865997	451.885498	194.307632	273.388031	501.469299	283.090179	301.610291	653.407593	92.351517	295.303925	
502	2.5100	462.119507	1377.165649	683.795410	482.107117	1385.934570	305.430450	431.388824	1426.367065	485.539276	562.096313	1373.072998	502.178711	454.788544	1119.782715	814.927246	476.500641	907.355713	926.854553	480.850464	1106.648682	196.927567	534.901428	903.112915	94.892036	386.974548	931.415161	496.884186	533.343323	993.537231	350.425446	536.723999	1001.484436	649.850647	597.260681	918.613403	383.193054	581.368469	907.693237	639.178040	405.943787	971.878540	558.912598	405.823761	983.444702	445.853333	464.643738	853.645569	684.456421	471.055817	854.384216	308.637604	484.422150	729.175903	715.063538	506.922119	643.274841	700.676758	484.896423	561.436035	691.995300	543.749695	646.066284	692.074829	493.812286	459.324188	675.174744	481.791687	441.193390	562.530640	447.908386	360.088013	716.977112	468.963440	273.173737	714.774597	444.329803	190.571136	716.735168	500.671173	274.205383	691.580872	454.134766	84.991058	709.988892	483.579559	95.922043	630.063354	420.224823	50.516506	655.019714	652.022705	85.053497	711.338196	566.137390	42.129852	755.931885	609.737244	46.727116	658.398132	493.342468	746.157227	283.032593	515.169678	665.060730	292.513489	549.839600	666.226196	304.969513	494.157013	577.873474	301.255432	495.516235	472.742371	315.162720	491.238495	454.633270	425.615814	450.786926	103.855186	284.097656	469.888031	100.969772	362.357971	411.049194	58.720726	327.147339	612.139771	47.366096	347.362427	579.637146	46.104881	245.183273	446.208008	364.324554	269.982819	472.404022	281.426514	275.852875	451.896210	194.312759	273.375580	501.452026	283.083679	301.614716	653.407166	92.365128	295.308319	
503	2.5150	462.085297	1377.167969	683.783752	482.091766	1385.945068	305.411316	431.384155	1426.371460	485.496948	562.077759	1373.075928	502.170929	454.743866	1119.779175	814.915100	476.489014	907.369751	926.875916	480.850037	1106.663696	196.873337	534.853821	903.126221	94.844894	386.956146	931.421326	496.881683	533.337524	993.540894	350.439545	536.745483	1001.492493	649.846130	597.247498	918.611511	383.183594	581.362549	907.698303	639.172302	405.908783	971.893066	558.904785	405.816864	983.467651	445.832794	464.641327	853.650024	684.445068	471.059753	854.396240	308.630371	484.417603	729.183167	715.062500	506.910675	643.310242	700.683289	484.882477	561.455688	691.996948	543.739746	646.076721	692.081421	493.807068	459.322876	675.157776	481.807709	441.206024	562.531372	447.914124	360.072388	716.985718	468.977631	273.156860	714.775879	444.323578	190.605362	716.730835	500.654175	274.189270	691.591736	454.144562	84.996841	709.968628	483.573517	95.902428	630.085449	420.396118	50.236374	655.120972	652.000732	85.059998	711.338257	566.127808	42.134155	755.918762	609.717712	46.719810	658.370300	493.352325	746.159119	283.039734	515.189453	665.011414	292.579987	549.879700	666.210999	305.011108	494.158844	577.866150	301.241364	495.478180	472.731445	315.163696	491.246826	454.637421	425.612274	450.798096	103.854980	284.089325	469.900879	100.978897	362.349731	411.059937	58.726940	327.134216	612.149719	47.393810	347.356842	579.607910	46.112587	245.179108	446.198151	364.319519	269.970642	472.444794	281.437897	275.864960	451.901855	194.309067	273.382874	501.473267	283.099609	301.616211	653.393311	92.363144	295.315063	
504	2.5200	462.046387	1377.168579	683.764832	482.086731	1385.942749	305.380737	431.398590	1426.381958	485.398590	562.054565	1373.078369	502.170624	454.719818	1119.792725	814.925171	476.484741	907.390259	926.883484	480.853424	1106.708740	196.786743	534.787842	903.145508	94.775131	386.933441	931.418457	496.858673	533.327942	993.552856	350.441772	536.702881	1001.493530	649.812988	597.239075	918.609497	383.189514	581.335815	907.696411	639.166687	405.826355	971.934692	558.872925	405.780518	983.478271	445.789917	464.608032	853.657166	684.413696	471.047455	854.402649	308.602844	484.398529	729.183411	715.035645	506.881653	643.300598	700.644226	484.872467	561.457458	691.978577	543.698608	646.086365	692.036804	493.779785	459.311920	675.139038	481.822266	441.217102	562.533386	447.912476	360.082336	716.981140	468.961578	273.203278	714.760071	444.301941	190.592789	716.728821	500.668854	274.206482	691.583008	454.127106	85.006775	709.954529	483.528625	95.907112	630.069153	420.211731	50.501747	654.995361	652.027954	85.086273	711.321167	566.152100	42.153225	755.895264	609.730225	46.723701	658.382568	493.360718	746.159058	283.026459	515.190002	665.034546	292.586151	549.880493	666.237061	305.018219	494.150421	577.868713	301.250519	495.478149	472.724396	315.160309	491.215332	454.638458	425.598114	450.787567	103.885498	284.065277	469.899872	100.997719	362.335114	411.070862	58.731869	327.123505	612.161865	47.377094	347.345734	579.640747	46.099411	245.190338	446.191101	364.318604	269.966797	472.443268	281.434052	275.851318	451.876556	194.308090	273.373291	501.448883	283.070374	301.606079	653.406494	92.366142	295.284180	
505	2.5250	462.009552	1377.165771	683.743347	482.048248	1385.957520	305.351135	431.363037	1426.411743	485.303223	562.038696	1373.086548	502.177612	454.728943	1119.805298	814.932861	476.491943	907.419312	926.914673	480.802948	1106.734741	196.727585	534.740601	903.168945	94.708603	386.928467	931.406860	496.800751	533.345642	993.551941	350.453827	536.628296	1001.508972	649.787781	597.229553	918.612427	383.202972	581.318848	907.687500	639.145874	405.640320	972.001648	558.849976	405.745697	983.495972	445.721863	464.551117	853.653198	684.400085	471.040802	854.404663	308.574799	484.375092	729.185486	715.027954	506.845032	643.287720	700.592712	484.828491	561.452087	691.957214	543.651855	646.072754	691.991028	493.759033	459.311707	675.118225	481.820679	441.219849	562.536804	447.874573	360.084656	716.952087	468.954559	273.194122	714.750977	444.301941	190.592804	716.728821	500.674042	274.197083	691.581787	454.096344	85.015709	709.926575	483.559113	95.900589	630.091614	420.184814	50.416798	655.043823	652.020874	85.086868	711.293640	566.205383	42.201481	755.866882	609.717834	46.727837	658.398621	493.341492	746.158325	283.025696	515.185669	665.043579	292.570709	549.880554	666.238342	305.018585	494.066833	577.857483	301.203674	495.483673	472.727142	315.151825	491.185028	454.642761	425.564575	450.746094	103.903244	284.030945	469.873352	101.016136	362.308228	411.041565	58.736305	327.094421	612.129395	47.376896	347.314789	579.637756	46.105301	245.171478	446.186676	364.318024	269.968903	472.424316	281.434235	275.860138	451.901642	194.309189	273.384094	501.448029	283.094940	301.611206	653.394287	92.375366	295.261658	
506	2.5300	461.978027	1377.174683	683.708374	482.054504	1385.960693	305.318420	431.394196	1426.401245	485.191742	562.017944	1373.107422	502.164215	454.731506	1119.834351	814.937683	476.371124	907.374451	926.807800	480.766479	1106.767212	196.670456	534.699829	903.187073	94.660500	386.910950	931.405090	496.747559	533.332153	993.567566	350.447998	536.548157	1001.506958	649.751282	597.205566	918.621826	383.212799	581.312012	907.710632	639.145813	405.455811	972.058960	558.826721	405.710968	983.503601	445.655884	464.489441	853.637573	684.354492	471.022186	854.425964	308.543671	484.346283	729.189636	715.007080	506.806702	643.276917	700.570190	484.811340	561.448608	691.931702	543.589722	646.055603	691.919250	493.743042	459.307648	675.088623	481.788300	441.207611	562.541809	447.863586	360.073944	716.939087	468.952454	273.154938	714.768433	444.305511	190.589218	716.730591	500.653229	274.180878	691.578979	454.051697	85.012848	709.904785	483.574371	95.902702	630.085144	420.081635	50.607304	654.951904	651.997864	85.086029	711.259888	566.094788	42.144855	755.853943	609.743958	46.744015	658.387817	493.342041	746.172058	283.024902	515.187683	665.036865	292.577728	549.894714	666.220703	305.067383	494.156158	577.874146	301.244141	495.494965	472.727509	315.167664	491.137054	454.631439	425.526733	450.730652	103.902084	283.992584	469.841705	100.994308	362.288910	411.042175	58.723763	327.071838	612.129028	47.383339	347.289124	579.645081	46.117729	245.196671	446.197083	364.315216	269.986633	472.409088	281.437256	275.857422	451.896179	194.305542	273.397858	501.464172	283.086182	301.620697	653.380859	92.370094	295.233765	
